<?xml version="1.0" encoding="UTF-8"?>
<svg version="1.1" xmlns="http://www.w3.org/2000/svg" width="200" height="200">
<path d="M0 0 C66 0 132 0 200 0 C200 66 200 132 200 200 C134 200 68 200 0 200 C0 134 0 68 0 0 Z " fill="#994621" transform="translate(0,0)"/>
<path d="M0 0 C3.31453606 2.50281294 3.89696548 3.45847047 5.0625 7.3125 C5.28955078 10.08325195 5.28955078 10.08325195 5.2578125 13.05078125 C5.25136719 14.11748047 5.24492187 15.18417969 5.23828125 16.28320312 C5.22152344 17.38599609 5.20476562 18.48878906 5.1875 19.625 C5.17847656 20.74712891 5.16945312 21.86925781 5.16015625 23.02539062 C5.13664486 25.78797909 5.10378155 28.55012932 5.0625 31.3125 C-1.71984495 32.7419596 -9.49627642 33.82637795 -16.18359375 31.546875 C-18.74569393 29.80194346 -19.82160574 27.89103668 -20.421875 24.89453125 C-20.64202837 20.75442482 -20.55200415 18.18128173 -18.125 14.75 C-14.2949188 12.2330895 -11.22343109 12.20189859 -6.75 12.25 C-5.11998047 12.26353516 -5.11998047 12.26353516 -3.45703125 12.27734375 C-2.62558594 12.28894531 -1.79414062 12.30054687 -0.9375 12.3125 C-1.9275 10.0025 -2.9175 7.6925 -3.9375 5.3125 C-8.2275 4.9825 -12.5175 4.6525 -16.9375 4.3125 C-16.9375 2.6625 -16.9375 1.0125 -16.9375 -0.6875 C-11.19168937 -2.28283794 -5.42839554 -2.81640606 0 0 Z " fill="#F9F1EA" transform="translate(126.9375,86.6875)"/>
<path d="M0 0 C5.14951249 5.39472737 4.625 7.89694663 4.625 15.75 C-2.635 15.75 -9.895 15.75 -17.375 15.75 C-15.19440167 22.59825895 -15.19440167 22.59825895 -11.375 24.75 C-8.17120876 24.99246783 -8.17120876 24.99246783 -4.6875 24.875 C-3.50800781 24.85695313 -2.32851563 24.83890625 -1.11328125 24.8203125 C-0.20964844 24.79710938 0.69398437 24.77390625 1.625 24.75 C1.625 26.4 1.625 28.05 1.625 29.75 C-4.2820737 31.71902457 -10.95272827 31.48533249 -16.875 29.6875 C-20.22604286 27.09044178 -22.18464157 24.78919378 -23.375 20.75 C-24.81621592 8.10259499 -24.81621592 8.10259499 -21.625 3.0625 C-15.49490605 -3.23787433 -7.64104316 -5.95551894 0 0 Z " fill="#F9EDE6" transform="translate(63.375,88.25)"/>
<path d="M0 0 C0.71220703 -0.020625 1.42441406 -0.04125 2.15820312 -0.0625 C6.70702317 -0.09616379 9.69299035 0.26366859 13.1875 3.25 C17.20147149 8.70064241 16.53028434 14.65880097 16.375 21.125 C16.35469727 22.72988281 16.35469727 22.72988281 16.33398438 24.3671875 C16.29878624 26.99531511 16.24954693 29.62239194 16.1875 32.25 C14.2075 32.25 12.2275 32.25 10.1875 32.25 C10.16244385 31.60450195 10.1373877 30.95900391 10.11157227 30.29394531 C9.99535567 27.36244106 9.87274558 24.43123783 9.75 21.5 C9.71068359 20.48421875 9.67136719 19.4684375 9.63085938 18.421875 C9.58896484 17.4421875 9.54707031 16.4625 9.50390625 15.453125 C9.46724854 14.55239258 9.43059082 13.65166016 9.39282227 12.72363281 C9.23099075 9.96650899 9.23099075 9.96650899 8.1875 6.25 C3.8975 5.92 -0.3925 5.59 -4.8125 5.25 C-4.8125 14.16 -4.8125 23.07 -4.8125 32.25 C-6.4625 32.25 -8.1125 32.25 -9.8125 32.25 C-9.8125 22.02 -9.8125 11.79 -9.8125 1.25 C-6.69863918 -0.30693041 -3.41505068 0.02432805 0 0 Z " fill="#FDFCFA" transform="translate(84.8125,85.75)"/>
<path d="M0 0 C0 3.3 0 6.6 0 10 C3.96 10 7.92 10 12 10 C12 11.65 12 13.3 12 15 C8.04 15 4.08 15 0 15 C0.11377842 18.10495317 0.2405278 21.2084334 0.375 24.3125 C0.4059375 25.19357422 0.436875 26.07464844 0.46875 26.98242188 C0.50742188 27.82998047 0.54609375 28.67753906 0.5859375 29.55078125 C0.6173584 30.33106689 0.6487793 31.11135254 0.68115234 31.9152832 C0.89587889 34.30155768 0.89587889 34.30155768 3 37 C5.20725073 37.36362818 5.20725073 37.36362818 7.625 37.1875 C8.44226563 37.16042969 9.25953125 37.13335937 10.1015625 37.10546875 C11.04128906 37.05326172 11.04128906 37.05326172 12 37 C12.33 38.65 12.66 40.3 13 42 C8.65630678 43.20165663 4.4765187 43.73411715 0 43 C-2.75569447 40.81840855 -4.43588747 39.12822506 -6 36 C-6.08667255 33.37372867 -6.11560135 30.77437517 -6.09765625 28.1484375 C-6.0962413 27.37440582 -6.09482635 26.60037415 -6.09336853 25.80288696 C-6.08776403 23.32688558 -6.07521083 20.85097412 -6.0625 18.375 C-6.05748558 16.69791797 -6.05292257 15.02083453 -6.04882812 13.34375 C-6.03779315 9.22913194 -6.02052554 5.11458122 -6 1 C-4 0 -4 0 0 0 Z " fill="#FBF4EF" transform="translate(168,76)"/>
<path d="M0 0 C3.31453606 2.50281294 3.89696548 3.45847047 5.0625 7.3125 C5.28955078 10.08325195 5.28955078 10.08325195 5.2578125 13.05078125 C5.25136719 14.11748047 5.24492187 15.18417969 5.23828125 16.28320312 C5.22152344 17.38599609 5.20476562 18.48878906 5.1875 19.625 C5.17847656 20.74712891 5.16945312 21.86925781 5.16015625 23.02539062 C5.13664486 25.78797909 5.10378155 28.55012932 5.0625 31.3125 C1.7625 31.3125 -1.5375 31.3125 -4.9375 31.3125 C-3.4525 30.8175 -3.4525 30.8175 -1.9375 30.3125 C-1.9375 26.0225 -1.9375 21.7325 -1.9375 17.3125 C-3.2575 16.6525 -4.5775 15.9925 -5.9375 15.3125 C-5.9375 14.9825 -5.9375 14.6525 -5.9375 14.3125 C-8.2475 13.9825 -10.5575 13.6525 -12.9375 13.3125 C-12.9375 12.9825 -12.9375 12.6525 -12.9375 12.3125 C-8.9775 12.3125 -5.0175 12.3125 -0.9375 12.3125 C-1.9275 10.0025 -2.9175 7.6925 -3.9375 5.3125 C-8.2275 4.9825 -12.5175 4.6525 -16.9375 4.3125 C-16.9375 2.6625 -16.9375 1.0125 -16.9375 -0.6875 C-11.19168937 -2.28283794 -5.42839554 -2.81640606 0 0 Z " fill="#EBD5C9" transform="translate(126.9375,86.6875)"/>
<path d="M0 0 C0.75410156 0.00451172 1.50820312 0.00902344 2.28515625 0.01367188 C4.14847127 0.02546501 6.01174555 0.04340058 7.875 0.0625 C7.545 1.7125 7.215 3.3625 6.875 5.0625 C3.245 5.0625 -0.385 5.0625 -4.125 5.0625 C-4.125 13.9725 -4.125 22.8825 -4.125 32.0625 C-6.105 32.0625 -8.085 32.0625 -10.125 32.0625 C-10.125 21.8325 -10.125 11.6025 -10.125 1.0625 C-6.93675432 -0.53162284 -3.49603338 -0.03924735 0 0 Z " fill="#FEFDFB" transform="translate(150.125,85.9375)"/>
<path d="M0 0 C1.89492188 0.01353516 1.89492188 0.01353516 3.828125 0.02734375 C4.79234375 0.03894531 5.7565625 0.05054687 6.75 0.0625 C6.42 1.7125 6.09 3.3625 5.75 5.0625 C1.79 5.0625 -2.17 5.0625 -6.25 5.0625 C-6.25 13.9725 -6.25 22.8825 -6.25 32.0625 C-7.9 32.0625 -9.55 32.0625 -11.25 32.0625 C-11.25 21.8325 -11.25 11.6025 -11.25 1.0625 C-7.26957092 0.06739273 -4.0846834 -0.03782114 0 0 Z " fill="#FDF7F2" transform="translate(30.25,85.9375)"/>
<path d="M0 0 C1.65 0.66 3.3 1.32 5 2 C4.67 2.99 4.34 3.98 4 5 C3.01 4.67 2.02 4.34 1 4 C-0.40824893 3.91978001 -1.81997231 3.89234023 -3.23046875 3.90234375 C-3.95387451 3.90484131 -4.67728027 3.90733887 -5.42260742 3.90991211 C-6.79122925 3.92356812 -6.79122925 3.92356812 -8.1875 3.9375 C-11.095625 3.958125 -14.00375 3.97875 -17 4 C-17 14.23 -17 24.46 -17 35 C-15.35 35 -13.7 35 -12 35 C-12 26.09 -12 17.18 -12 8 C-11.67 8 -11.34 8 -11 8 C-11 17.24 -11 26.48 -11 36 C-13.97 36 -16.94 36 -20 36 C-19.93124979 31.33638049 -19.84334875 26.6736686 -19.73754883 22.01074219 C-19.7042602 20.42393035 -19.67624053 18.83699897 -19.65356445 17.25 C-19.62008922 14.97083516 -19.5677814 12.69276959 -19.51171875 10.4140625 C-19.50532883 9.70255035 -19.4989389 8.99103821 -19.49235535 8.25796509 C-19.43237305 6.25634766 -19.43237305 6.25634766 -19 3 C-15.20836973 0.47224649 -12.19125969 0.77556965 -7.8125 0.875 C-7.06291016 0.88402344 -6.31332031 0.89304687 -5.54101562 0.90234375 C-3.69387346 0.92587422 -1.84689588 0.96174439 0 1 C0 0.67 0 0.34 0 0 Z " fill="#AF785F" transform="translate(92,83)"/>
<path d="M0 0 C1.02770508 -0.01160156 1.02770508 -0.01160156 2.07617188 -0.0234375 C7.1841133 -0.0033867 7.1841133 -0.0033867 9.4375 2.25 C3.4975 2.58 -2.4425 2.91 -8.5625 3.25 C-8.5625 13.48 -8.5625 23.71 -8.5625 34.25 C-6.9125 34.25 -5.2625 34.25 -3.5625 34.25 C-3.5625 25.34 -3.5625 16.43 -3.5625 7.25 C-3.2325 7.25 -2.9025 7.25 -2.5625 7.25 C-2.5625 16.49 -2.5625 25.73 -2.5625 35.25 C-5.5325 35.25 -8.5025 35.25 -11.5625 35.25 C-11.49374979 30.58638049 -11.40584875 25.9236686 -11.30004883 21.26074219 C-11.2667602 19.67393035 -11.23874053 18.08699897 -11.21606445 16.5 C-11.18258922 14.22083516 -11.1302814 11.94276959 -11.07421875 9.6640625 C-11.06782883 8.95255035 -11.0614389 8.24103821 -11.05485535 7.50796509 C-10.99487305 5.50634766 -10.99487305 5.50634766 -10.5625 2.25 C-6.92564463 -0.17457025 -4.20017221 -0.04768407 0 0 Z " fill="#AB745C" transform="translate(27.5625,83.75)"/>
<path d="M0 0 C3 1 3 1 4 3 C4.08449628 4.7404417 4.10723024 6.48409722 4.09765625 8.2265625 C4.09443359 9.2578125 4.09121094 10.2890625 4.08789062 11.3515625 C4.07951172 12.43179688 4.07113281 13.51203125 4.0625 14.625 C4.05798828 15.71296875 4.05347656 16.8009375 4.04882812 17.921875 C4.03701776 20.61463789 4.02054778 23.30729188 4 26 C1.03 26 -1.94 26 -5 26 C-4.01 25.67 -3.02 25.34 -2 25 C-2 20.71 -2 16.42 -2 12 C-3.32 11.34 -4.64 10.68 -6 10 C-5.67 9.34 -5.34 8.68 -5 8 C-3.35 8 -1.7 8 0 8 C0 5.36 0 2.72 0 0 Z " fill="#FEFBF7" transform="translate(127,92)"/>
<path d="M0 0 C1.49080078 0.02707031 1.49080078 0.02707031 3.01171875 0.0546875 C3.77097656 0.07789062 4.53023437 0.10109375 5.3125 0.125 C5.3125 3.425 5.3125 6.725 5.3125 10.125 C3.54242286 10.20614106 1.77127902 10.26425505 0 10.3125 C-0.98613281 10.34730469 -1.97226563 10.38210937 -2.98828125 10.41796875 C-5.6875 10.125 -5.6875 10.125 -7.51953125 8.7734375 C-9.17355104 6.43900155 -9.11663579 4.91438267 -8.6875 2.125 C-5.26655758 -0.15562828 -4.00562778 -0.09425007 0 0 Z " fill="#99461F" transform="translate(120.6875,103.875)"/>
<path d="M0 0 C1.98 0.99 1.98 0.99 4 2 C5.00005304 5.00015912 5.11575585 6.97423756 5.09765625 10.10546875 C5.09443359 11.08837891 5.09121094 12.07128906 5.08789062 13.08398438 C5.07951172 14.10814453 5.07113281 15.13230469 5.0625 16.1875 C5.05798828 17.22326172 5.05347656 18.25902344 5.04882812 19.32617188 C5.0370401 21.88417266 5.02058515 24.44205733 5 27 C3.35 27 1.7 27 0 27 C0 18.09 0 9.18 0 0 Z " fill="#FEFBF7" transform="translate(95,91)"/>
<path d="M0 0 C2.3125 1.6875 2.3125 1.6875 4 4 C4 5.65 4 7.3 4 9 C-0.95 9 -5.9 9 -11 9 C-10 4 -10 4 -7.75 1.6875 C-4.72244325 -0.17031892 -3.4646779 -0.71070316 0 0 Z " fill="#965537" transform="translate(57,90)"/>
<path d="M0 0 C1.19496094 -0.00386719 1.19496094 -0.00386719 2.4140625 -0.0078125 C4.375 0.125 4.375 0.125 5.375 1.125 C5.41563832 2.79117115 5.417721 4.45888095 5.375 6.125 C2.58459495 6.51338614 -0.20637886 6.88620046 -3 7.25 C-3.7940625 7.36214844 -4.588125 7.47429687 -5.40625 7.58984375 C-7.47021885 7.85221267 -9.54839351 7.99650738 -11.625 8.125 C-12.285 7.465 -12.945 6.805 -13.625 6.125 C-13.00625 5.856875 -12.3875 5.58875 -11.75 5.3125 C-9.3254767 4.16943152 -9.3254767 4.16943152 -7.625 1.125 C-4.78285932 0.17761977 -2.94891609 -0.00960559 0 0 Z " fill="#984721" transform="translate(118.625,90.875)"/>
<path d="M0 0 C1.65 0 3.3 0 5 0 C4.67 1.65 4.34 3.3 4 5 C0.37 5 -3.26 5 -7 5 C-7 13.91 -7 22.82 -7 32 C-8.98 32 -10.96 32 -13 32 C-11.68 31.67 -10.36 31.34 -9 31 C-9 22.09 -9 13.18 -9 4 C-3.555 3.01 -3.555 3.01 2 2 C1.34 1.34 0.68 0.68 0 0 Z " fill="#E8D8C9" transform="translate(153,86)"/>
<path d="M0 0 C0 3.3 0 6.6 0 10 C3.96 10 7.92 10 12 10 C12 11.65 12 13.3 12 15 C8.04 15 4.08 15 0 15 C0 14.67 0 14.34 0 14 C3.63 14 7.26 14 11 14 C11 13.01 11 12.02 11 11 C7.04 11 3.08 11 -1 11 C-1 8.03 -1 5.06 -1 2 C-1.99 2.66 -2.98 3.32 -4 4 C-4.33814748 6.47491114 -4.48872339 8.71351688 -4.51171875 11.1953125 C-4.52966995 11.90275604 -4.54762115 12.61019958 -4.56611633 13.33908081 C-4.62034442 15.60099303 -4.65415316 17.86269284 -4.6875 20.125 C-4.72066226 21.65758173 -4.7551509 23.19013538 -4.79101562 24.72265625 C-4.87607727 28.48161779 -4.94282753 32.240515 -5 36 C-5.33 36 -5.66 36 -6 36 C-6 24.45 -6 12.9 -6 1 C-4 0 -4 0 0 0 Z " fill="#F6E2D6" transform="translate(168,76)"/>
<path d="M0 0 C0.66 0 1.32 0 2 0 C3.1577506 3.47325181 3.06866652 6.36067448 3 10 C0.703463 11.1482685 -0.58313167 11.11561175 -3.1328125 11.09765625 C-3.93847656 11.09443359 -4.74414062 11.09121094 -5.57421875 11.08789062 C-6.41597656 11.07951172 -7.25773437 11.07113281 -8.125 11.0625 C-8.97449219 11.05798828 -9.82398438 11.05347656 -10.69921875 11.04882812 C-12.79950909 11.03702874 -14.8997633 11.01909306 -17 11 C-16.67 10.01 -16.34 9.02 -16 8 C-11.05 7.67 -6.1 7.34 -1 7 C-1 5.68 -1 4.36 -1 3 C-0.67 2.01 -0.34 1.02 0 0 Z " fill="#FDFDF8" transform="translate(63,92)"/>
<path d="M0 0 C7.35090153 0.36754508 7.35090153 0.36754508 10.4375 3.375 C12.71308009 7.19797455 13.12178486 9.95693957 13.09765625 14.32421875 C13.09443359 15.35224609 13.09121094 16.38027344 13.08789062 17.43945312 C13.07951172 18.51130859 13.07113281 19.58316406 13.0625 20.6875 C13.05798828 21.77095703 13.05347656 22.85441406 13.04882812 23.97070312 C13.03703743 26.64719085 13.02058063 29.32356777 13 32 C12.67 32 12.34 32 12 32 C11.97494385 31.34926514 11.9498877 30.69853027 11.92407227 30.02807617 C11.80806298 27.08101954 11.68535885 24.1342787 11.5625 21.1875 C11.52318359 20.16333984 11.48386719 19.13917969 11.44335938 18.08398438 C11.40146484 17.10107422 11.35957031 16.11816406 11.31640625 15.10546875 C11.27974854 14.19949951 11.24309082 13.29353027 11.20532227 12.36010742 C11.0791795 9.84951218 11.0791795 9.84951218 10 7 C9.34 6.67 8.68 6.34 8 6 C7.34 7.32 6.68 8.64 6 10 C5.67 8.68 5.34 7.36 5 6 C1.04 5.67 -2.92 5.34 -7 5 C-7 4.67 -7 4.34 -7 4 C-2.71 4 1.58 4 6 4 C6 3.34 6 2.68 6 2 C3.03 1.505 3.03 1.505 0 1 C0 0.67 0 0.34 0 0 Z " fill="#EDD2C4" transform="translate(88,86)"/>
<path d="M0 0 C0.33 0 0.66 0 1 0 C1 1.98 1 3.96 1 6 C-3.2038932 7.51340155 -4.95783601 6.72030914 -10 6 C-10.33 14.91 -10.66 23.82 -11 33 C-11.33 33 -11.66 33 -12 33 C-12 23.76 -12 14.52 -12 5 C-8.37 5 -4.74 5 -1 5 C-0.67 3.35 -0.34 1.7 0 0 Z " fill="#8D492D" transform="translate(37,86)"/>
<path d="M0 0 C-1.65 0.33 -3.3 0.66 -5 1 C-4.67 9.91 -4.34 18.82 -4 28 C-3.01 28.33 -2.02 28.66 -1 29 C-1 29.66 -1 30.32 -1 31 C-2.65 31 -4.3 31 -6 31 C-6 20.77 -6 10.54 -6 0 C-3.50907189 -1.24546405 -2.58919267 -0.7767578 0 0 Z " fill="#FDF5EA" transform="translate(81,87)"/>
<path d="M0 0 C2 2 2 2 2 6 C0.78763672 6.05607422 0.78763672 6.05607422 -0.44921875 6.11328125 C-1.51785156 6.17902344 -2.58648437 6.24476562 -3.6875 6.3125 C-4.74324219 6.37050781 -5.79898438 6.42851563 -6.88671875 6.48828125 C-10.25495066 7.04190532 -12.20242893 8.09412409 -15 10 C-15.99 10.495 -15.99 10.495 -17 11 C-16.67 9.68 -16.34 8.36 -16 7 C-15.34 7 -14.68 7 -14 7 C-14 6.34 -14 5.68 -14 5 C-9.32798795 3.79431947 -4.78503708 3.90617574 0 4 C0 2.68 0 1.36 0 0 Z " fill="#94593F" transform="translate(124,93)"/>
<path d="M0 0 C0.66 0.33 1.32 0.66 2 1 C1.01 1.33 0.02 1.66 -1 2 C-0.65213292 3.97536745 -0.65213292 3.97536745 0 6 C0.66 6.33 1.32 6.66 2 7 C2 7.66 2 8.32 2 9 C4.64 9 7.28 9 10 9 C10 6.03 10 3.06 10 0 C10.33 0 10.66 0 11 0 C11 3.3 11 6.6 11 10 C9.22992286 10.08114106 7.45877902 10.13925505 5.6875 10.1875 C4.70136719 10.22230469 3.71523437 10.25710937 2.69921875 10.29296875 C0 10 0 10 -1.83203125 8.6484375 C-3.48605104 6.31400155 -3.42913579 4.78938267 -3 2 C-2.01 1.34 -1.02 0.68 0 0 Z " fill="#A1684E" transform="translate(115,104)"/>
<path d="M0 0 C-0.66 0.66 -1.32 1.32 -2 2 C-2.99 2 -3.98 2 -5 2 C-5 11.24 -5 20.48 -5 30 C-5.33 30 -5.66 30 -6 30 C-6 20.1 -6 10.2 -6 0 C-3.50907189 -1.24546405 -2.58919267 -0.7767578 0 0 Z " fill="#FFF9F2" transform="translate(146,87)"/>
<path d="M0 0 C0.66 0 1.32 0 2 0 C2.22786458 2.01822917 2.45572917 4.03645833 2.68359375 6.0546875 C2.91292961 8.07404316 2.91292961 8.07404316 4 10 C3.401875 9.835 2.80375 9.67 2.1875 9.5 C-0.11344336 8.8885876 -0.11344336 8.8885876 -3 9 C-3.33 9 -3.66 9 -4 9 C-4 7.35 -4 5.7 -4 4 C-3.01 3.67 -2.02 3.34 -1 3 C-0.67 2.01 -0.34 1.02 0 0 Z " fill="#9B5639" transform="translate(105,106)"/>
<path d="M0 0 C1.32 0.33 2.64 0.66 4 1 C4 2.32 4 3.64 4 5 C3.34 5 2.68 5 2 5 C2 12.26 2 19.52 2 27 C1.67 27 1.34 27 1 27 C0.67 18.09 0.34 9.18 0 0 Z " fill="#90492B" transform="translate(131,91)"/>
<path d="M0 0 C1.65 0 3.3 0 5 0 C5 0.66 5 1.32 5 2 C6.32 2.66 7.64 3.32 9 4 C9 4.99 9 5.98 9 7 C7.02 7 5.04 7 3 7 C2.01 4.69 1.02 2.38 0 0 Z " fill="#964722" transform="translate(51,91)"/>
<path d="M0 0 C2.97 0 5.94 0 9 0 C9.33 0.99 9.66 1.98 10 3 C6.37 3.33 2.74 3.66 -1 4 C-0.67 2.68 -0.34 1.36 0 0 Z " fill="#FDFBF9" transform="translate(112,86)"/>
<path d="M0 0 C2.45862401 -0.05383848 4.9160755 -0.09359038 7.375 -0.125 C8.42300781 -0.15013672 8.42300781 -0.15013672 9.4921875 -0.17578125 C11.32897486 -0.19344267 13.16601963 -0.10303261 15 0 C15.66 0.66 16.32 1.32 17 2 C9.08 2.495 9.08 2.495 1 3 C0.67 2.01 0.34 1.02 0 0 Z " fill="#A26248" transform="translate(20,84)"/>
<path d="M0 0 C3.63 0 7.26 0 11 0 C11 0.99 11 1.98 11 3 C7.37 3 3.74 3 0 3 C0 2.01 0 1.02 0 0 Z " fill="#FEFCF7" transform="translate(168,87)"/>
<path d="M0 0 C0 0.33 0 0.66 0 1 C-0.74765625 1.18175781 -1.4953125 1.36351563 -2.265625 1.55078125 C-3.74289063 1.92783203 -3.74289063 1.92783203 -5.25 2.3125 C-6.22453125 2.55613281 -7.1990625 2.79976563 -8.203125 3.05078125 C-10.98975665 3.99652356 -12.77304368 5.10708713 -15 7 C-14.67 5.35 -14.34 3.7 -14 2 C-9.15758367 0.66416101 -5.06562383 -0.25328119 0 0 Z " fill="#925134" transform="translate(57,84)"/>
<path d="M0 0 C1.65 0 3.3 0 5 0 C4.67 1.65 4.34 3.3 4 5 C1.03 5 -1.94 5 -5 5 C-2.38058783 3.25372522 -0.96175123 2.61277612 2 2 C1.34 1.34 0.68 0.68 0 0 Z " fill="#F4DFD1" transform="translate(153,86)"/>
<path d="M0 0 C2.475 0.99 2.475 0.99 5 2 C4.67 2.99 4.34 3.98 4 5 C3.01 4.67 2.02 4.34 1 4 C-0.89212737 3.77820215 -2.78884472 3.59385985 -4.6875 3.4375 C-5.68136719 3.35371094 -6.67523438 3.26992187 -7.69921875 3.18359375 C-8.83810547 3.09271484 -8.83810547 3.09271484 -10 3 C-10 2.67 -10 2.34 -10 2 C-6.7 1.67 -3.4 1.34 0 1 C0 0.67 0 0.34 0 0 Z " fill="#AB6A52" transform="translate(92,83)"/>
<path d="M0 0 C0.33 0 0.66 0 1 0 C1 1.98 1 3.96 1 6 C-1.99480917 6.8723412 -4.63575911 7.10829766 -7.75 7.0625 C-8.54921875 7.05347656 -9.3484375 7.04445313 -10.171875 7.03515625 C-10.77515625 7.02355469 -11.3784375 7.01195313 -12 7 C-12 6.34 -12 5.68 -12 5 C-8.37 5 -4.74 5 -1 5 C-0.67 3.35 -0.34 1.7 0 0 Z " fill="#92583A" transform="translate(37,86)"/>
<path d="M0 0 C0.33 0.99 0.66 1.98 1 3 C2.98 3 4.96 3 7 3 C7 3.33 7 3.66 7 4 C5.37675914 4.22162329 3.751279 4.42689803 2.125 4.625 C0.76761719 4.79902344 0.76761719 4.79902344 -0.6171875 4.9765625 C-1.40351563 4.98429687 -2.18984375 4.99203125 -3 5 C-3.66 4.34 -4.32 3.68 -5 3 C-3.68 3 -2.36 3 -1 3 C-0.67 2.01 -0.34 1.02 0 0 Z " fill="#A15435" transform="translate(138,115)"/>
<path d="M0 0 C2.64 0 5.28 0 8 0 C7.01 0.33 6.02 0.66 5 1 C4.67 2.65 4.34 4.3 4 6 C3.34 6 2.68 6 2 6 C2 4.68 2 3.36 2 2 C1.34 1.34 0.68 0.68 0 0 Z " fill="#914928" transform="translate(117,104)"/>
<path d="M0 0 C0.66 0.33 1.32 0.66 2 1 C1.19185349 2.33597652 0.37836819 3.668725 -0.4375 5 C-0.88996094 5.7425 -1.34242187 6.485 -1.80859375 7.25 C-2.20175781 7.8275 -2.59492187 8.405 -3 9 C-3.33 9 -3.66 9 -4 9 C-4.25 6.75 -4.25 6.75 -4 4 C-2 1.6875 -2 1.6875 0 0 Z " fill="#FBEDE2" transform="translate(111,100)"/>
<path d="M0 0 C0.33 1.32 0.66 2.64 1 4 C2.32 4.33 3.64 4.66 5 5 C4.01 5.33 3.02 5.66 2 6 C1.01 7.485 1.01 7.485 0 9 C-0.99 8.34 -1.98 7.68 -3 7 C-2.34 7 -1.68 7 -1 7 C-0.67 4.69 -0.34 2.38 0 0 Z " fill="#995231" transform="translate(109,87)"/>
<path d="M0 0 C2.97 0.33 5.94 0.66 9 1 C8.67 1.66 8.34 2.32 8 3 C5.03 3 2.06 3 -1 3 C-0.67 2.01 -0.34 1.02 0 0 Z " fill="#9F6044" transform="translate(172,111)"/>
<path d="M0 0 C-0.66 0.66 -1.32 1.32 -2 2 C-2.99 2 -3.98 2 -5 2 C-5 3.65 -5 5.3 -5 7 C-5.33 7 -5.66 7 -6 7 C-6 4.69 -6 2.38 -6 0 C-3.50907189 -1.24546405 -2.58919267 -0.7767578 0 0 Z " fill="#F7E9DB" transform="translate(146,87)"/>
<path d="M0 0 C0.66 0.33 1.32 0.66 2 1 C0.02 3.31 -1.96 5.62 -4 8 C-4.33 7.34 -4.66 6.68 -5 6 C-3.35 4.02 -1.7 2.04 0 0 Z " fill="#F5E1D7" transform="translate(46,87)"/>
<path d="M0 0 C0.33 0.66 0.66 1.32 1 2 C-1.97 2.66 -4.94 3.32 -8 4 C-8 3.34 -8 2.68 -8 2 C-4.77208445 -0.1519437 -3.71599191 -0.20086443 0 0 Z " fill="#965335" transform="translate(81,84)"/>
</svg>
